PathFileType	4	(X/Y/Z)	C:/Users/beibeiliu/ov580/test_trc/User2\sequence.2_training_dense_right.trc
DataRate	CameraRate	NumFrames	NumMarkers	Units	OrigDataRate	OrigDataStartFrame	OrigNumFrames
120	120	14	19	mm	120	53	78
Frame#	Time	ThumbCMC			ThumbMCP			ThumbIP			ThumbTip			IndexMCP			IndexPIP			IndexTip			MiddleMCP			MiddlePIP			MiddleTip			RingMCP			RingPIP			RingTip			PinkyMCP			PinkyPIP			PinkyTip			BackHand1			BackHand2			BackHand3	
		X0	Y0	Z0	X1	Y1	Z1	X2	Y2	Z2	X3	Y3	Z3	X4	Y4	Z4	X5	Y5	Z5	X6	Y6	Z6	X7	Y7	Z7	X8	Y8	Z8	X9	Y9	Z9	X10	Y10	Z10	X11	Y11	Z11	X12	Y12	Z12	X13	Y13	Z13	X14	Y14	Z14	X15	Y15	Z15	X16	Y16	Z16	X17	Y17	Z17	X18	Y18	Z18	
52	0.433333	141.728	33.9869	-24.269	121.469	39.252	-55.3994	115.558	39.2679	-88.7351	119.706	32.1867	-114.838	184	56.1244	-96.5509	167.553	52.9919	-124.676	141.091	26.716	-122.476	197.838	39.9663	-105.667	174.588	34.1818	-131.729	145.039	8.24719	-118.661	200.609	17.3225	-108.811	177.692	9.7728	-128.408	149.577	-5.62148	-108.252	200.701	-6.08143	-99.3575	174.93	-10.5183	-119.983	148.673	-17.9959	-102.803	209.499	3.53061	-44.9853	200.778	-6.18686	-10.8625	187.503	27.1495	-22.2187	
53	0.441667	126.354	19.3665	-20.6676	105.128	22.8457	-51.835	99.5258	24.2712	-84.3778	112.221	23.5681	-115.158	160.805	64.051	-82.9623	152.753	60.0633	-113.761	135.409	29.3961	-118.65	177.644	56.3115	-93.2214	161.381	41.9749	-126.94	143.292	9.74347	-117.174	192.253	34.0892	-102.879	174.124	22.1427	-124.209	148.778	-0.333293	-104.456	200.064	10.4161	-94.5017	179.687	-0.395513	-118.525	154.109	-14.5664	-104.306	200.299	16.0051	-36.5916	195.697	1.64471	-7.91285	169.664	32.0294	-14.5029	
54	0.45	118.171	0.818774	-21.4232	98.7983	0.418748	-50.7735	91.9035	5.60423	-87.2137	101.737	5.62097	-111.486	139.039	59.3329	-83.0401	129.61	51.4705	-113.648	122.974	19.938	-117.72	158.056	56.249	-91.2557	146.219	39.759	-123.725	134.825	6.32857	-116.296	174.728	39.3652	-98.1776	165.64	23.1721	-122.047	148.675	-5.08148	-107.009	189.272	18.9691	-94.4709	171.379	2.24181	-116.009	154.952	-23.9614	-100.496	184.781	21.2193	-36.3007	187.649	1.85955	-6.22343	153.535	27.0055	-14.4652	
55	0.458333	110.864	-12.6199	-23.8075	92.5997	-14.8307	-55.0277	84.5681	-16.2917	-87.1852	100.274	-12.9123	-113.815	121.397	44.8714	-84.6755	118.099	36.2577	-115.274	114.934	3.67497	-119.429	144.738	44.3417	-93.3037	136.036	28.3894	-125.005	130.363	-11.4171	-114.021	166.843	29.2497	-97.5295	150.699	11.7256	-122.19	145.909	-20.1087	-105.998	180.379	11.3338	-92.2756	166.947	-9.40793	-117.433	150.677	-31.6096	-100.991	175.687	16.6444	-37.3257	177.743	-2.3348	-6.51759	139.085	16.8608	-16.1277	
56	0.466667	104.608	-19.5708	-23.9168	86.4448	-28.3661	-55.1561	82.51	-30.5488	-88.6126	95.6353	-31.3077	-113.738	117.244	29.8181	-91.4675	110.217	20.3241	-119.05	108.811	-17.0574	-120.279	138.841	29.7939	-98.0483	133.872	11.6937	-128.401	126.173	-26.1247	-115.292	157.543	15.295	-100.121	151.346	-6.70572	-125.219	143.262	-34.7654	-104.981	173.481	-1.17858	-93.9897	164.018	-24.9849	-116.44	152.377	-47.9823	-95.4298	170.195	7.17738	-38.0551	171.271	-3.80801	-7.06678	135.779	10.1185	-19.95	
57	0.475	100.058	-24.3688	-22.3543	82.6727	-35.999	-55.416	78.2285	-44.8347	-90.3685	93.8559	-48.9658	-108.625	112.605	16.5001	-94.7601	110.637	0.842266	-124.669	109.356	-35.339	-118.62	139.266	13.9476	-103.638	131.089	-10.4403	-131.691	126.504	-43.6618	-113.023	159.44	-0.687392	-102.872	150.123	-23.5569	-124.423	136.167	-48.897	-99.7659	175.779	-16.036	-96.7335	159.749	-39.4275	-111.574	146.323	-60.3341	-85.6802	163.44	3.10296	-39.081	167.624	-4.41758	-10.1392	132.617	6.72092	-22.5978	
58	0.483333	98.2827	-23.725	-23.1613	80.1378	-42.7689	-48.1161	74.1196	-56.1844	-80.2042	93.9287	-62.724	-103.767	113.265	4.1071	-98.0465	106.077	-16.2078	-125.629	104.988	-48.7531	-116.068	137.341	1.85191	-104.466	132.531	-28.7253	-130.146	120.387	-58.4448	-105.47	154.129	-12.2258	-103.848	149.733	-41.8203	-119.296	135.667	-61.2541	-94.9137	174.866	-27.8934	-93.0009	159.762	-55.4211	-105.275	144.831	-70.247	-79.1943	164.647	-2.4483	-39.9752	165.999	-4.53993	-5.62152	130.217	6.10583	-22.7207	
59	0.491667	97.4014	-18.1627	-19.3502	73.7489	-38.5082	-42.4274	74.3292	-55.7569	-73.5827	86.0672	-67.7671	-93.2811	107.913	0.0908156	-98.5651	104.218	-23.0849	-121.538	101.984	-56.6073	-108.482	134.134	-7.86742	-108.366	125.221	-39.1393	-125.625	115.699	-65.0265	-99.3088	153.859	-23.1397	-103.988	143.16	-52.7574	-114.629	130.674	-68.5691	-85.4677	171.342	-36.9201	-88.7401	154.614	-65.509	-97.9378	137.704	-71.0458	-71.9061	162.022	-2.86635	-45.6622	165.713	-1.19758	-7.36138	131.911	10.1123	-23.7494	
60	0.5	92.0083	-5.62173	-12.8154	71.529	-25.0994	-34.7818	59.5824	-45.3283	-62.052	70.7641	-62.6163	-84.7659	106.341	-1.47719	-99.9874	91.9206	-28.0854	-116.217	83.017	-56.2209	-97.3306	126.062	-10.8257	-103.653	109.276	-41.2693	-118.707	100.713	-66.2753	-82.9856	143.576	-33.2665	-103.591	127.978	-58.6503	-106.339	114.832	-68.7042	-73.5011	160.362	-47.0685	-85.3277	133.247	-68.8589	-88.226	123.497	-73.965	-60.6416	162.302	-4.9354	-45.4365	166.608	-0.31672	-10.671	132.836	15.148	-28.6448	
61	0.508333	92.63	9.06474	-14.2224	61.2688	-5.37298	-26.739	46.3109	-26.9994	-53.8489	57.7042	-46.3878	-71.2079	101.078	4.00253	-94.1966	84.4203	-24.2248	-110.524	68.0273	-43.7017	-90.2988	120.268	-15.5019	-100.476	92.5627	-41.6989	-111.005	79.8315	-56.6955	-77.1134	128.257	-34.4834	-97.6854	108.441	-57.037	-100.929	94.9092	-63.9466	-66.7188	140.331	-50.9496	-83.6578	116.831	-70.8839	-81.1176	101.445	-64.5827	-48.3215	157.46	-9.84311	-46.836	165.629	-2.38755	-13.2675	132.67	20.4189	-28.5231	
62	0.516667	94.7458	23.1167	-11.2221	62.7543	11.7295	-24.3286	42.1661	-8.0264	-51.0454	45.8984	-29.2269	-67.2298	100.589	7.80863	-92.1448	79.5946	-12.6352	-106.345	56.2284	-29.9964	-83.2438	110.749	-13.1581	-103.055	81.6253	-33.083	-106.438	67.2996	-46.0426	-68.86	120.339	-34.3198	-93.1523	89.3273	-50.2805	-93.7943	78.2533	-52.4975	-57.311	129.991	-52.0742	-78.2799	97.0158	-63.3358	-74.8542	86.2811	-53.9037	-44.9237	153.678	-9.52032	-43.4074	166.241	-4.6078	-11.2948	136.057	21.1945	-29.908	
63	0.525	96.288	30.2939	-10.324	64.3945	23.314	-24.1106	40.1526	10.123	-47.5098	40.5774	-14.0528	-68.8115	99.9259	17.0841	-91.14	69.9593	3.99839	-105.589	53.5323	-15.7803	-80.0547	108.11	-4.24257	-99.1026	77.8783	-20.1877	-106.36	59.2854	-32.8789	-67.245	113.608	-27.085	-92.2454	83.7656	-41.1392	-93.6509	70.1484	-41.4368	-61.0813	119.937	-45.5343	-78.4018	88.7623	-51.2819	-77.6834	74.106	-47.5634	-47.8187	151.354	-8.49163	-46.7585	162.683	-5.64137	-10.3479	136.553	25.6054	-27.9048	
64	0.533333	98.7507	32.0685	-1.44362	63.2974	32.5332	-23.3711	39.6948	24.2252	-44.5393	40.4803	3.60837	-70.3762	99.4926	37.0299	-86.5169	68.8431	22.8961	-103.984	51.3799	3.26785	-81.5348	104.848	15.374	-98.299	74.7461	-3.00686	-107.659	54.6859	-13.5919	-74.8664	108.619	-11.599	-95.0769	75.4808	-26.0083	-96.5519	63.6075	-26.2524	-66.6511	113.18	-31.0703	-83.5626	80.3087	-38.6336	-83.1509	66.037	-39.6837	-55.1886	147.673	-5.10288	-47.3201	160.203	-6.24294	-12.1432	137.779	26.7184	-22.408	
65	0.541667	96.1062	34.2233	0.392509	66.303	34.2057	-19.7198	42.1585	33.3745	-44.714	39.6309	16.9713	-69.3196	101.557	46.9209	-81.786	75.3522	34.1715	-102.828	53.8793	16.8912	-85.4083	106.741	24.7141	-99.8703	75.9663	13.0999	-109.278	54.9873	-0.994754	-79.9463	106.406	3.22963	-97.209	77.02	-7.07098	-101.282	62.2573	-14.0729	-68.5475	111.599	-19.1238	-88.0176	78.5611	-28.0679	-89.0773	64.7905	-28.7077	-64.1797	146.763	-0.085992	-43.4905	155.936	-4.62899	-9.68598	138.684	29.5552	-21.66	
